<svg width="980" height="280" viewBox="0 0 980 280" fill="none" xmlns="http://www.w3.org/2000/svg">
  <path d="M35 205L140 110L282 64L200 170H70L35 205Z" fill="#2166A8"/>
  <path d="M70 205V265L145 286V187L196 138L240 187V265H315V196L202 72L70 205Z" fill="#2166A8"/>
  <path d="M160 136L201 86L240 136H160Z" fill="#E8EEF5"/>
  <rect x="173" y="154" width="13" height="13" fill="#E8EEF5"/>
  <rect x="189" y="154" width="13" height="13" fill="#E8EEF5"/>
  <rect x="173" y="170" width="13" height="13" fill="#E8EEF5"/>
  <rect x="189" y="170" width="13" height="13" fill="#E8EEF5"/>
  <path d="M170 230H221V270H170V230Z" fill="#E8EEF5"/>
  <path d="M0 280C80 247 164 236 252 236C317 236 383 243 452 258C398 226 323 208 239 208C143 208 65 232 0 280Z" fill="#2166A8"/>
  <path d="M294 154C316 152 328 136 336 112C341 95 345 90 353 102C360 114 370 113 385 128C395 138 402 144 410 131C419 117 427 113 437 130C446 146 455 145 466 132C475 121 484 123 494 140C506 161 519 165 530 150C542 133 548 126 562 124C579 122 590 106 601 81C608 66 616 66 625 83C635 101 645 103 656 95C666 89 673 92 679 108C688 130 701 139 717 148C732 156 746 160 759 162C779 165 794 175 807 195C816 209 827 217 841 218" stroke="#DE4A4A" stroke-width="8" stroke-linecap="round"/>
  <path d="M332 138C343 127 356 123 368 129C382 137 395 151 407 148C421 145 429 129 443 128C457 127 465 141 478 147C492 154 506 150 520 140C534 130 548 117 564 117C577 117 587 128 600 135C615 143 631 144 646 137C661 130 673 118 689 117C705 116 716 127 726 140C735 152 748 159 764 157C777 155 788 145 800 146C812 147 823 157 834 172C814 150 797 139 777 134C750 127 725 115 703 89C690 73 678 57 663 57C648 57 640 71 628 81C615 93 600 95 586 84C571 73 557 55 539 55C520 55 510 72 498 89C488 103 477 109 464 108C452 107 442 97 432 87C421 76 410 66 397 66C381 66 371 81 359 95C346 110 333 118 318 120C304 122 292 132 284 148" fill="#D9DADB"/>
  <text x="410" y="190" fill="#2166A8" font-family="Arial, Helvetica, sans-serif" font-size="74" font-weight="700">Appalachian</text>
  <text x="410" y="260" fill="#2166A8" font-family="Arial, Helvetica, sans-serif" font-size="74" font-weight="700">Roofing LLC</text>
</svg>
